<svg width="120" height="120" viewBox="0 0 120 120" fill="none" xmlns="http://www.w3.org/2000/svg">
<g clip-path="url(#clip0_459_5682)">
<path d="M120 0.0250244H0V119.975H120V0.0250244Z" fill="#5F5F5F"/>
<path d="M81.077 60C85.923 56.4879 89.0754 50.7777 89.0754 44.338C89.0754 34.3863 81.5566 26.1932 71.8897 25.1241C71.1853 25.0441 70.4659 25.0042 69.7415 25.0042H30.9238V38.7927H65.6449C69.5916 38.7927 72.7889 41.99 72.7889 45.9367C72.7889 49.8834 69.5916 53.0808 65.6449 53.0808H30.9238V66.8693H65.6449C69.5916 66.8693 72.7889 70.0666 72.7889 74.0133C72.7889 77.96 69.5916 81.1574 65.6449 81.1574L51.9713 81.2073H30.9238V94.9958H69.7415C70.4659 94.9958 71.1853 94.9559 71.8897 94.8759C81.5566 93.8068 89.0754 85.6136 89.0754 75.6619C89.0754 65.7102 85.923 63.5121 81.077 60Z" fill="#FFCC01"/>
</g>
<defs>
<clipPath id="clip0_459_5682">
<rect width="120" height="120" rx="10" fill="white"/>
</clipPath>
</defs>
</svg>
